<svg width="1024" height="1024" viewBox="0 0 1024 1024" fill="none" xmlns="http://www.w3.org/2000/svg">
<path d="M850.94 713.175C851.357 893.085 670.94 988.23 499.583 978.293C287.812 966.006 188.58 832.493 174.381 677.233C162.788 550.51 226.115 428.595 292.385 359.584C290.071 387.187 292.508 416.506 307.637 439.707C322.761 462.913 353.351 477.626 379.175 467.609C411.922 454.905 420.908 411.286 412.371 377.214C403.834 343.136 383.31 312.968 375.061 278.821C361.668 223.331 383.24 163.541 420.593 120.376C457.945 77.2104 509.3 48.5279 561.905 26.3578C530.274 63.4438 526.08 121.385 552.049 162.638C576.852 202.048 622.298 222.508 657.472 253.018C716.636 304.346 745.148 394.186 711.652 464.981C702.613 484.085 689.664 501.137 680.619 520.236C671.575 539.335 666.681 561.98 674.769 581.506C682.857 601.031 707.608 614.227 726.231 604.231C747.766 592.681 748.091 558.171 735.741 524.809C808.972 552.267 850.759 634.26 850.94 713.175Z" fill="#D33D3D"/>
<path d="M726.659 846.293C700.43 898.273 653.255 938.384 599.353 960.41C593.662 962.736 587.899 964.867 582.078 966.808C523.416 986.372 459.057 981.07 405.213 950.658C364.953 927.919 327.943 890.266 304.415 826.41C279.981 760.086 293.916 666.759 331.349 610.2C331.62 638.393 361.88 660.101 389.928 657.294C417.983 654.494 441.353 632.52 452.967 606.834C464.58 581.147 466.307 552.164 466.081 523.971C465.862 495.778 463.887 467.343 468.767 439.577C473.641 411.812 490.586 368.034 518.784 343.141C492.538 394.391 513.953 444.783 540.616 487.266C567.28 529.749 601.601 544.556 619.688 617.208C632.379 668.183 606.754 717.024 658.004 730.69C697.523 741.228 728.29 695.059 726.338 668.183C750.349 721.225 752.889 794.308 726.659 846.293Z" fill="#FF884D"/>
<path d="M611.093 929.428C587.693 961.713 556.472 979.691 503.396 977.559C448.61 975.359 415.905 944.449 393.128 901.494C372.939 863.42 370.135 815.496 379.665 774.673C397.391 808.33 421.436 822.018 454.244 826.447C422.741 770.768 449.099 671.196 521.403 618.48C506.971 640.966 509.946 669.538 521.85 693.142C533.754 716.74 553.523 736.465 572.825 755.922C592.127 775.372 611.583 795.428 622.632 819.346C639.015 854.815 634.498 897.148 611.093 929.428Z" fill="#FFCF57"/>
</svg>
