<svg width="1024" height="1024" viewBox="0 0 1024 1024" fill="none" xmlns="http://www.w3.org/2000/svg">
<g clip-path="url(#clip0_2004_10)">
<path d="M511.5 1024C612.863 1024 711.949 993.942 796.23 937.628C880.51 881.314 946.198 801.272 984.988 707.625C1023.78 613.978 1033.93 510.932 1014.15 411.516C994.377 312.101 945.566 220.783 873.892 149.108C802.218 77.4338 710.899 28.6229 611.484 8.84801C512.068 -10.9269 409.022 -0.777701 315.375 38.0122C221.728 76.8021 141.686 142.49 85.372 226.771C29.0578 311.051 -0.999756 410.137 -0.999756 511.5C-0.999756 647.424 52.9956 777.78 149.108 873.892C245.22 970.005 375.577 1024 511.5 1024Z" fill="black"/>
<path d="M443.399 220.144L735.523 515.651L442.835 804.957L371.085 732.079L590.896 514.677L370.521 291.893L443.399 220.144Z" fill="white"/>
</g>
<defs>
<clipPath id="clip0_2004_10">
<rect width="1024" height="1024" fill="white"/>
</clipPath>
</defs>
</svg>
