<svg width="1024" height="1024" viewBox="0 0 1024 1024" fill="none" xmlns="http://www.w3.org/2000/svg">
<path d="M435.178 65.3593C431.181 141.352 419.748 196.775 389.944 254.897C370.498 292.62 349.466 323.475 305.5 378.112C276.119 414.81 271.575 420.55 259.526 436.644C205.098 509.63 181.847 565.702 175.4 639.61C168.424 718.644 187.554 791.63 232.048 855.39C271.346 911.831 337 960 402.5 982C388 971 366.763 953.895 352.954 935.859C338.897 917.715 326.638 893.113 320.825 871.791C315.435 852.007 314.061 841.654 314.061 819.512C314.167 770.821 325.792 725.409 350.734 677.026C357.181 664.725 372.823 639.098 372.823 639.098C372.823 639.098 373.034 647.503 373.14 657.857C373.246 678.563 374.831 689.532 380.115 705.113C389.653 733.466 412.4 758.5 440 769.5C434 724 433.381 694.48 438.56 658.574C447.966 592.354 471.006 538.64 508.842 495.074C519.725 482.437 532.049 471.318 548.4 458C550.295 456.456 553.453 454.58 553.453 454.58C553.453 454.58 554.177 463.652 554.816 469.447C558.432 502.228 562.425 526.441 572.783 551.966C584.62 580.975 601.107 607.013 634.504 649.348C664.625 687.481 673.819 700.808 684.917 722.232C701.826 754.829 708.59 782.917 708.696 820.845C708.696 862.565 696.753 899.161 672.128 932.784C657.696 952.26 652 957 618.5 983C694 952.5 744.523 920.63 787.539 862.053C834.413 798.164 855.719 719.087 849.26 640.328C841.348 544.269 806.784 438.459 748.5 360L747.272 369.194C740.568 410.019 727.453 434.547 695.38 461.553C692.29 464.154 686.953 467.547 686.953 467.547C686.953 467.547 687.127 450.395 686.819 439.412C685.881 405.995 684.705 384.98 678.364 354.227C664.836 288.93 636.829 228.45 595.505 175.248C569.823 142.138 541.29 112.164 498.273 81.7606C468.9 61 435.9 42 435.9 42C435.9 42 435.934 51 435.178 65.3593Z" fill="black"/>
</svg>
