<svg width="1024" height="1024" viewBox="0 0 1024 1024" fill="none" xmlns="http://www.w3.org/2000/svg">
<g clip-path="url(#clip0_2004_37)">
<path d="M511.5 1024C612.863 1024 711.949 993.942 796.23 937.628C880.51 881.314 946.198 801.273 984.988 707.625C1023.78 613.978 1033.93 510.932 1014.15 411.517C994.377 312.101 945.566 220.783 873.892 149.108C802.218 77.4339 710.899 28.6231 611.484 8.84814C512.068 -10.9268 409.022 -0.777579 315.375 38.0123C221.728 76.8022 141.686 142.491 85.372 226.771C29.0578 311.051 -0.999756 410.137 -0.999756 511.5C-0.999756 647.424 52.9956 777.78 149.108 873.892C245.22 970.005 375.577 1024 511.5 1024Z" fill="white"/>
<path d="M426.107 173.704L764.156 516.199L425.455 851.508L342.425 767.042L596.792 515.071L341.772 256.862L426.107 173.704Z" fill="black"/>
</g>
<defs>
<clipPath id="clip0_2004_37">
<rect width="1024" height="1024" fill="white"/>
</clipPath>
</defs>
</svg>
